REM DIRINDEX 1\2\3,1\2\4,1\2\5,1\2\6
REM DIRNAME folder01,folder02,folder03,folder04,folder05,folder06
TITLE ""
FILE "187 187.mp3" MP3
  TRACK 01 AUDIO
    TITLE "0:"
    INDEX 01 00:00:00
  TRACK 02 AUDIO
    TITLE "3:cjc157_6753"
    INDEX 01 00:00:09
  TRACK 03 AUDIO
    TITLE "0:"
    INDEX 01 00:01:62
  TRACK 04 AUDIO
    TITLE "4:cjc157_6754"
    INDEX 01 00:02:30
  TRACK 05 AUDIO
    TITLE "0:"
    INDEX 01 00:04:03
  TRACK 06 AUDIO
    TITLE "5:cjc157_6755"
    INDEX 01 00:04:56
  TRACK 07 AUDIO
    TITLE "0:"
    INDEX 01 00:09:51
  TRACK 08 AUDIO
    TITLE "3:cjc157_6756"
    INDEX 01 00:10:19
  TRACK 09 AUDIO
    TITLE "0:"
    INDEX 01 00:11:50
  TRACK 10 AUDIO
    TITLE "4:cjc157_6757"
    INDEX 01 00:12:18
  TRACK 11 AUDIO
    TITLE "0:"
    INDEX 01 00:13:39
  TRACK 12 AUDIO
    TITLE "5:cjc157_6758"
    INDEX 01 00:14:11
  TRACK 13 AUDIO
    TITLE "0:"
    INDEX 01 00:17:31
  TRACK 14 AUDIO
    TITLE "5:cjc157_6759"
    INDEX 01 00:18:01
  TRACK 15 AUDIO
    TITLE "0:"
    INDEX 01 00:21:23
  TRACK 16 AUDIO
    TITLE "3:cjc157_6760"
    INDEX 01 00:21:70
  TRACK 17 AUDIO
    TITLE "0:"
    INDEX 01 00:23:24
  TRACK 18 AUDIO
    TITLE "4:cjc157_6761"
    INDEX 01 00:23:71
  TRACK 19 AUDIO
    TITLE "0:"
    INDEX 01 00:25:46
  TRACK 20 AUDIO
    TITLE "5:cjc157_6762"
    INDEX 01 00:26:18
  TRACK 21 AUDIO
    TITLE "0:"
    INDEX 01 00:30:10
  TRACK 22 AUDIO
    TITLE "3:cjc157_6763"
    INDEX 01 00:30:59
  TRACK 23 AUDIO
    TITLE "0:"
    INDEX 01 00:32:64
  TRACK 24 AUDIO
    TITLE "4:cjc157_6764"
    INDEX 01 00:33:34
  TRACK 25 AUDIO
    TITLE "0:"
    INDEX 01 00:34:51
  TRACK 26 AUDIO
    TITLE "5:cjc157_6765"
    INDEX 01 00:35:23
  TRACK 27 AUDIO
    TITLE "0:"
    INDEX 01 00:37:50
  TRACK 28 AUDIO
    TITLE "5:cjc157_6766"
    INDEX 01 00:38:20
  TRACK 29 AUDIO
    TITLE "0:"
    INDEX 01 00:40:17
  TRACK 30 AUDIO
    TITLE "3:cjc157_6767"
    INDEX 01 00:41:10
  TRACK 31 AUDIO
    TITLE "0:"
    INDEX 01 00:42:29
  TRACK 32 AUDIO
    TITLE "4:cjc157_6768"
    INDEX 01 00:42:72
  TRACK 33 AUDIO
    TITLE "0:"
    INDEX 01 00:44:22
  TRACK 34 AUDIO
    TITLE "5:cjc157_6769"
    INDEX 01 00:44:67
  TRACK 35 AUDIO
    TITLE "0:"
    INDEX 01 00:48:22
  TRACK 36 AUDIO
    TITLE "5:cjc157_6770"
    INDEX 01 00:48:65
  TRACK 37 AUDIO
    TITLE "0:"
    INDEX 01 00:52:59
  TRACK 38 AUDIO
    TITLE "3:cjc157_6771"
    INDEX 01 00:53:27
  TRACK 39 AUDIO
    TITLE "0:"
    INDEX 01 00:54:58
  TRACK 40 AUDIO
    TITLE "4:cjc157_6772"
    INDEX 01 00:55:30
  TRACK 41 AUDIO
    TITLE "0:"
    INDEX 01 00:56:43
  TRACK 42 AUDIO
    TITLE "5:cjc157_6773"
    INDEX 01 00:57:13
  TRACK 43 AUDIO
    TITLE "0:"
    INDEX 01 01:00:41
  TRACK 44 AUDIO
    TITLE "5:cjc157_6774"
    INDEX 01 01:01:13
  TRACK 45 AUDIO
    TITLE "0:"
    INDEX 01 01:04:00
  TRACK 46 AUDIO
    TITLE "3:cjc157_6775"
    INDEX 01 01:04:48
  TRACK 47 AUDIO
    TITLE "0:"
    INDEX 01 01:05:50
  TRACK 48 AUDIO
    TITLE "4:cjc157_6776"
    INDEX 01 01:06:22
  TRACK 49 AUDIO
    TITLE "0:"
    INDEX 01 01:07:39
  TRACK 50 AUDIO
    TITLE "5:cjc157_6777"
    INDEX 01 01:08:13
  TRACK 51 AUDIO
    TITLE "0:"
    INDEX 01 01:11:47
  TRACK 52 AUDIO
    TITLE "5:cjc157_6778"
    INDEX 01 01:12:19
  TRACK 53 AUDIO
    TITLE "0:"
    INDEX 01 01:15:27
  TRACK 54 AUDIO
    TITLE "3:cjc157_6779"
    INDEX 01 01:16:01
  TRACK 55 AUDIO
    TITLE "0:"
    INDEX 01 01:17:47
  TRACK 56 AUDIO
    TITLE "4:cjc157_6780"
    INDEX 01 01:18:21
  TRACK 57 AUDIO
    TITLE "0:"
    INDEX 01 01:19:46
  TRACK 58 AUDIO
    TITLE "5:cjc157_6781"
    INDEX 01 01:20:20
  TRACK 59 AUDIO
    TITLE "0:"
    INDEX 01 01:23:34
  TRACK 60 AUDIO
    TITLE "3:cjc157_6782"
    INDEX 01 01:24:12
  TRACK 61 AUDIO
    TITLE "0:"
    INDEX 01 01:25:57
  TRACK 62 AUDIO
    TITLE "4:cjc157_6783"
    INDEX 01 01:26:29
  TRACK 63 AUDIO
    TITLE "0:"
    INDEX 01 01:27:61
  TRACK 64 AUDIO
    TITLE "5:cjc157_6784"
    INDEX 01 01:28:31
  TRACK 65 AUDIO
    TITLE "0:"
    INDEX 01 01:31:22
  TRACK 66 AUDIO
    TITLE "5:cjc157_6785"
    INDEX 01 01:31:71
  TRACK 67 AUDIO
    TITLE "0:"
    INDEX 01 01:35:08
  TRACK 68 AUDIO
    TITLE "3:cjc157_6786"
    INDEX 01 01:35:53
  TRACK 69 AUDIO
    TITLE "0:"
    INDEX 01 01:36:68
  TRACK 70 AUDIO
    TITLE "4:cjc157_6787"
    INDEX 01 01:37:40
  TRACK 71 AUDIO
    TITLE "0:"
    INDEX 01 01:38:67
  TRACK 72 AUDIO
    TITLE "5:cjc157_6788"
    INDEX 01 01:39:41
  TRACK 73 AUDIO
    TITLE "0:"
    INDEX 01 01:43:00
